<?xml version="1.0" encoding="UTF-8" standalone="no"?>
<!-- Created with Inkscape (http://www.inkscape.org/) -->

<svg
   width="400mm"
   height="400mm"
   viewBox="0 0 400 400"
   version="1.1"
   id="svg1"
   inkscape:version="1.4 (86a8ad7, 2024-10-11)"
   sodipodi:docname="GP_logo_small.svg"
   xmlns:inkscape="http://www.inkscape.org/namespaces/inkscape"
   xmlns:sodipodi="http://sodipodi.sourceforge.net/DTD/sodipodi-0.dtd"
   xmlns="http://www.w3.org/2000/svg"
   xmlns:svg="http://www.w3.org/2000/svg">
  <sodipodi:namedview
     id="namedview1"
     pagecolor="#505050"
     bordercolor="#eeeeee"
     borderopacity="1"
     inkscape:showpageshadow="0"
     inkscape:pageopacity="0"
     inkscape:pagecheckerboard="0"
     inkscape:deskcolor="#505050"
     inkscape:document-units="mm"
     inkscape:zoom="0.36756309"
     inkscape:cx="1267.8096"
     inkscape:cy="552.28614"
     inkscape:window-width="1718"
     inkscape:window-height="1360"
     inkscape:window-x="-7"
     inkscape:window-y="150"
     inkscape:window-maximized="0"
     inkscape:current-layer="layer1" />
  <defs
     id="defs1" />
  <g
     inkscape:label="Layer 1"
     inkscape:groupmode="layer"
     id="layer1">
    <path
       id="rect1"
       style="fill:#000000;stroke-width:0.306181"
       d="M -7.9256144 -7.9256144 L -7.9256144 407.92549 L 407.92549 407.92549 L 407.92549 -7.9256144 L -7.9256144 -7.9256144 z M 9.380306 9.380306 L 390.61957 9.380306 L 390.61957 390.61957 L 9.380306 390.61957 L 9.380306 9.380306 z " />
    <path
       id="rect3"
       style="fill:#000000;stroke-width:0.231268"
       d="M 18.033525 18.033525 L 18.033525 381.96635 L 381.96635 381.96635 L 381.96635 18.033525 L 18.033525 18.033525 z M 82.084395 29.482438 L 181.05355 29.482438 L 181.05355 59.144194 L 101.17315 59.144194 C 98.040587 59.144194 95.202086 60.123112 92.656877 62.080965 C 90.111667 64.038819 87.860104 66.681846 85.90225 70.010197 C 84.140182 73.142762 82.671546 76.862962 81.496834 81.170239 C 80.517908 85.477517 80.028707 89.980127 80.028707 94.678975 L 80.028707 202.45896 C 80.028707 206.96202 80.517908 211.36741 81.496834 215.67469 C 82.475761 219.78618 83.846143 223.50587 85.608211 226.83422 C 87.566065 230.16257 89.817628 232.80559 92.362838 234.76345 C 95.103832 236.7213 98.040587 237.70022 101.17315 237.70022 L 142.58199 237.70022 L 142.58199 162.22524 L 103.22884 162.22524 L 103.22884 132.85752 L 184.57788 132.85752 L 184.57788 266.77441 L 82.084395 266.77441 C 75.231908 266.77441 68.966418 265.1103 63.288643 261.78195 C 57.806654 258.4536 53.108053 253.95048 49.192346 248.2727 C 45.276639 242.39914 42.242148 235.54671 40.088509 227.7153 C 37.93487 219.88389 36.857699 211.46509 36.857699 202.45896 L 36.857699 94.678975 C 36.857699 85.477064 37.93487 76.960527 40.088509 69.129114 C 42.437933 61.101915 45.570162 54.15175 49.485868 48.27819 C 53.401575 42.40463 58.100693 37.803766 63.582682 34.475415 C 69.260457 31.147064 75.427694 29.482438 82.084395 29.482438 z M 208.35524 133.33036 L 315.03245 133.33036 C 321.67532 133.33036 327.7318 135.38156 333.2024 139.48451 C 338.86838 143.39208 343.65519 148.76517 347.56276 155.60342 C 351.47034 162.2463 354.49883 170.15923 356.648 179.34202 C 358.99254 188.32944 360.16458 197.80492 360.16458 207.76923 C 360.16458 218.1243 359.09017 227.69792 356.941 236.48996 C 354.79184 245.282 351.76334 252.90205 347.85577 259.34954 C 343.9482 265.79704 339.16139 270.87673 333.49541 274.58892 C 328.0248 278.10574 321.8707 279.86405 315.03245 279.86405 L 253.78089 279.86405 L 253.78089 370.12935 L 208.35524 370.12935 L 208.35524 133.33036 z M 253.78089 162.93011 L 253.78089 249.97131 L 295.68996 249.97131 C 309.75723 249.97131 316.79048 235.7085 316.79048 207.18322 C 316.79048 177.68104 309.75723 162.93011 295.68996 162.93011 L 253.78089 162.93011 z " />
  </g>
</svg>